<?xml version="1.0" encoding="utf-8"?>
<!-- Generator: Adobe Illustrator 19.2.1, SVG Export Plug-In . SVG Version: 6.00 Build 0)  -->
<svg version="1.1" id="Layer_1" xmlns="http://www.w3.org/2000/svg" xmlns:xlink="http://www.w3.org/1999/xlink" x="0px" y="0px"
	 viewBox="0 0 108 88.5" style="enable-background:new 0 0 108 88.5;" xml:space="preserve">
<style type="text/css">
	.st0{fill:#28A745;stroke:#231F20;stroke-miterlimit:10;}
	.st1{fill:#212529;stroke:#231F20;stroke-miterlimit:10;}
	.st2{fill:#CCCCCC;stroke:#231F20;stroke-miterlimit:10;}
	.st3{fill:#E5E5E5;}
	.st4{fill:#373D42;}
	.st5{fill:#39D155;}
	.st6{fill:none;stroke:#231F20;stroke-miterlimit:10;}
</style>
<path class="st0" d="M101.6,56.4c0,3.1-7.2,5.8-18.4,7.6c-8,1.3-18,2-28.9,2s-20.9-0.7-28.9-2C14.2,62.2,7,59.5,7,56.4
	c0-5.3,21.2-9.6,47.3-9.6C80.4,46.8,101.6,51.1,101.6,56.4z"/>
<path class="st0" d="M101.6,56.4v15.2c0,5.3-21.2,9.6-47.3,9.6S7,76.9,7,71.6V56.4c0,3.1,7.2,5.8,18.4,7.6c8,1.3,18,2,28.9,2
	s20.9-0.7,28.9-2C94.4,62.3,101.6,59.5,101.6,56.4z"/>
<path class="st1" d="M101.6,36.1c0,3.1-7.2,5.8-18.4,7.6c-8,1.3-18,2-28.9,2s-20.9-0.7-28.9-2C14.2,41.9,7,39.2,7,36.1
	c0-5.3,21.2-9.6,47.3-9.6S101.6,30.8,101.6,36.1z"/>
<path class="st1" d="M101.6,36.1v15.2c0,5.3-21.2,9.6-47.3,9.6S7,56.6,7,51.3V36.1c0,3.1,7.2,5.8,18.4,7.6c8,1.3,18,2,28.9,2
	s20.9-0.7,28.9-2C94.4,42,101.6,39.2,101.6,36.1z"/>
<path class="st2" d="M101.6,15.9c0,3.1-7.2,5.8-18.4,7.6c-8,1.3-18,2-28.9,2s-20.9-0.7-28.9-2C14.2,21.7,7,19,7,15.9
	c0-5.3,21.2-9.6,47.3-9.6C80.4,6.3,101.6,10.6,101.6,15.9z"/>
<path class="st2" d="M101.6,15.9v15.2c0,5.3-21.2,9.6-47.3,9.6S7,36.4,7,31.1V15.9c0,3.1,7.2,5.8,18.4,7.6c8,1.3,18,2,28.9,2
	s20.9-0.7,28.9-2C94.4,21.8,101.6,19,101.6,15.9z"/>
<path class="st3" d="M7,16.4c0,0,4.2,5.1,12.4,6.1c0,1.7,0,15.2,0,15.2S8,35.4,7,31.2C7,26.9,7,16.4,7,16.4z"/>
<path class="st4" d="M7,37.2c0,0,4.2,5.1,12.4,6.1c0,1.7,0,15.2,0,15.2S8,56.2,7,52C7,47.7,7,37.2,7,37.2z"/>
<path class="st5" d="M7,57.2c0,0,4.2,5.1,12.4,6.1c0,1.7,0,15.2,0,15.2S8,76.2,7,72C7,67.7,7,57.2,7,57.2z"/>
<path class="st6" d="M101.6,56.4v15.2c0,5.3-21.2,9.6-47.3,9.6S7,76.9,7,71.6V56.4c0,3.1,7.2,5.8,18.4,7.6c8,1.3,18,2,28.9,2
	s20.9-0.7,28.9-2C94.4,62.3,101.6,59.5,101.6,56.4z"/>
<path class="st6" d="M101.6,15.9v15.2c0,5.3-21.2,9.6-47.3,9.6S7,36.4,7,31.1V15.9c0,3.1,7.2,5.8,18.4,7.6c8,1.3,18,2,28.9,2
	s20.9-0.7,28.9-2C94.4,21.8,101.6,19,101.6,15.9z"/>
<path class="st6" d="M101.6,36.1v15.2c0,5.3-21.2,9.6-47.3,9.6S7,56.6,7,51.3V36.1c0,3.1,7.2,5.8,18.4,7.6c8,1.3,18,2,28.9,2
	s20.9-0.7,28.9-2C94.4,42,101.6,39.2,101.6,36.1z"/>
</svg>
