<?xml version="1.0" encoding="utf-8"?>
<!-- Generator: Adobe Illustrator 19.2.1, SVG Export Plug-In . SVG Version: 6.00 Build 0)  -->
<svg version="1.1" id="Layer_1" xmlns="http://www.w3.org/2000/svg" xmlns:xlink="http://www.w3.org/1999/xlink" x="0px" y="0px"
	 viewBox="0 0 465.7 97" style="enable-background:new 0 0 465.7 97;" xml:space="preserve">
<style type="text/css">
	.st0{fill:#28A745;stroke:#231F20;stroke-miterlimit:10;}
	.st1{fill:#212529;stroke:#231F20;stroke-miterlimit:10;}
	.st2{fill:#CCCCCC;stroke:#231F20;stroke-miterlimit:10;}
	.st3{fill:#E5E5E5;}
	.st4{fill:#373D42;}
	.st5{fill:#39D155;}
	.st6{fill:none;stroke:#231F20;stroke-miterlimit:10;}
</style>
<path class="st0" d="M107.1,62.4c0,3.1-7.2,5.8-18.4,7.6c-8,1.3-18,2-28.9,2c-10.9,0-20.9-0.7-28.9-2c-11.2-1.8-18.4-4.5-18.4-7.6
	c0-5.3,21.2-9.6,47.3-9.6C85.9,52.8,107.1,57.1,107.1,62.4z"/>
<path class="st0" d="M107.1,62.4v15.2c0,5.3-21.2,9.6-47.3,9.6c-26.1,0-47.3-4.3-47.3-9.6V62.4c0,3.1,7.2,5.8,18.4,7.6
	c8,1.3,18,2,28.9,2c10.9,0,20.9-0.7,28.9-2C99.9,68.3,107.1,65.5,107.1,62.4z"/>
<path class="st1" d="M107.1,42.1c0,3.1-7.2,5.8-18.4,7.6c-8,1.3-18,2-28.9,2c-10.9,0-20.9-0.7-28.9-2c-11.2-1.8-18.4-4.5-18.4-7.6
	c0-5.3,21.2-9.6,47.3-9.6C85.9,32.5,107.1,36.8,107.1,42.1z"/>
<path class="st1" d="M107.1,42.1v15.2c0,5.3-21.2,9.6-47.3,9.6c-26.1,0-47.3-4.3-47.3-9.6V42.1c0,3.1,7.2,5.8,18.4,7.6
	c8,1.3,18,2,28.9,2c10.9,0,20.9-0.7,28.9-2C99.9,48,107.1,45.2,107.1,42.1z"/>
<path class="st2" d="M107.1,21.9c0,3.1-7.2,5.8-18.4,7.6c-8,1.3-18,2-28.9,2c-10.9,0-20.9-0.7-28.9-2c-11.2-1.8-18.4-4.5-18.4-7.6
	c0-5.3,21.2-9.6,47.3-9.6C85.9,12.3,107.1,16.6,107.1,21.9z"/>
<path class="st2" d="M107.1,21.9v15.2c0,5.3-21.2,9.6-47.3,9.6c-26.1,0-47.3-4.3-47.3-9.6V21.9c0,3.1,7.2,5.8,18.4,7.6
	c8,1.3,18,2,28.9,2c10.9,0,20.9-0.7,28.9-2C99.9,27.8,107.1,25,107.1,21.9z"/>
<path class="st3" d="M12.5,22.4c0,0,4.2,5.1,12.4,6.1c0,1.7,0,15.2,0,15.2s-11.4-2.3-12.4-6.5C12.5,32.9,12.5,22.4,12.5,22.4z"/>
<path class="st4" d="M12.5,43.2c0,0,4.2,5.1,12.4,6.1c0,1.7,0,15.2,0,15.2S13.5,62.2,12.5,58C12.5,53.7,12.5,43.2,12.5,43.2z"/>
<path class="st5" d="M12.5,63.2c0,0,4.2,5.1,12.4,6.1c0,1.7,0,15.2,0,15.2S13.5,82.2,12.5,78C12.5,73.7,12.5,63.2,12.5,63.2z"/>
<path class="st6" d="M107.1,62.4v15.2c0,5.3-21.2,9.6-47.3,9.6c-26.1,0-47.3-4.3-47.3-9.6V62.4c0,3.1,7.2,5.8,18.4,7.6
	c8,1.3,18,2,28.9,2c10.9,0,20.9-0.7,28.9-2C99.9,68.3,107.1,65.5,107.1,62.4z"/>
<path class="st6" d="M107.1,21.9v15.2c0,5.3-21.2,9.6-47.3,9.6c-26.1,0-47.3-4.3-47.3-9.6V21.9c0,3.1,7.2,5.8,18.4,7.6
	c8,1.3,18,2,28.9,2c10.9,0,20.9-0.7,28.9-2C99.9,27.8,107.1,25,107.1,21.9z"/>
<path class="st6" d="M107.1,42.1v15.2c0,5.3-21.2,9.6-47.3,9.6c-26.1,0-47.3-4.3-47.3-9.6V42.1c0,3.1,7.2,5.8,18.4,7.6
	c8,1.3,18,2,28.9,2c10.9,0,20.9-0.7,28.9-2C99.9,48,107.1,45.2,107.1,42.1z"/>
<g>
	<path class="st0" d="M313.6,74.8h-2.6l-11.8-28.1c-1.6-3.9-3.3-8.1-4.9-12.6h-0.3c0.3,6.5,0.5,12.5,0.5,18v22.7h-5.7v-47h8.3
		L308,54.4c1.3,3,2.7,6.7,4.2,11h0.2c1.7-4.8,3.1-8.4,4.2-11l11.1-26.6h8.3v47h-5.7V52.1c0-5.3,0.2-11.3,0.5-18h-0.3
		c-1.7,4.8-3.4,9-4.9,12.6L313.6,74.8z"/>
	<path class="st0" d="M378.1,67.5c1.7-5.1,3.5-10.3,5.5-15.5l9-24.2h5.7l-17.8,47h-5l-17.8-47h5.7l9,24.2c2,5.2,3.8,10.4,5.5,15.5
		H378.1z"/>
	<path class="st0" d="M442.3,32c-2.6,0-5.1,0.4-7.4,1.2c-2.3,0.8-4.3,2.1-6,3.7c-1.7,1.7-3,3.7-4,6.2c-1,2.4-1.5,5.3-1.5,8.6
		c0,3.2,0.5,6,1.4,8.4c0.9,2.4,2.2,4.3,3.8,5.9c1.7,1.6,3.7,2.7,6,3.5c2.3,0.8,4.9,1.1,7.8,1.1c0.8,0,1.6,0,2.5-0.1
		c0.9-0.1,1.8-0.2,2.7-0.4c0.9-0.2,1.8-0.3,2.6-0.5c0.8-0.2,1.6-0.4,2.3-0.7V74c-1.4,0.5-3,1-4.8,1.2c-1.8,0.3-3.7,0.4-5.6,0.4
		c-3.9,0-7.4-0.5-10.4-1.6s-5.6-2.7-7.6-4.7s-3.6-4.5-4.7-7.5c-1.1-2.9-1.6-6.3-1.6-10c0-3.7,0.6-7,1.7-10.1
		c1.1-3.1,2.7-5.7,4.8-7.9c2.1-2.2,4.6-3.9,7.6-5.2s6.3-1.8,10.1-1.8c1,0,2,0,2.9,0.1c1,0.1,1.9,0.2,2.8,0.4
		c0.9,0.2,1.7,0.3,2.4,0.5s1.4,0.4,1.9,0.7v5.1c-1.4-0.5-3-0.9-4.7-1.2S444,32,442.3,32z"/>
</g>
<g>
	<path d="M147.7,24.4c12.7,0,19.9,6.3,19.9,17.2c0,11.4-7.3,18-19.9,18h-11.6v15.2h-8.5V24.4H147.7z M136.1,52h11.2
		c7.8,0,12.2-3.3,12.2-10.2c0-6.6-4.4-9.8-12.2-9.8h-11.2V52z"/>
	<path d="M208.8,74.8V53.9h-26.7v20.9h-8.5V24.4h8.5v21.9h26.7V24.4h8.5v50.4H208.8z"/>
	<path d="M248.2,24.4c12.7,0,19.9,6.3,19.9,17.2c0,11.4-7.3,18-19.9,18h-11.6v15.2h-8.5V24.4H248.2z M236.6,52h11.2
		c7.8,0,12.2-3.3,12.2-10.2c0-6.6-4.4-9.8-12.2-9.8h-11.2V52z"/>
</g>
<g>
</g>
<g>
</g>
<g>
</g>
<g>
</g>
<g>
</g>
<g>
</g>
</svg>
